<svg xmlns="http://www.w3.org/2000/svg" xmlns:xlink="http://www.w3.org/1999/xlink" width="2000" zoomAndPan="magnify" viewBox="0 0 1500 1499.999933" height="2000" preserveAspectRatio="xMidYMid meet" version="1.0"><defs><g/><clipPath id="0fabaa18e1"><rect x="0" width="1142" y="0" height="344"/></clipPath></defs><g transform="matrix(1, 0, 0, 1, 179, 584)"><g clip-path="url(#0fabaa18e1)"><g fill="#222222" fill-opacity="1"><g transform="translate(66.126725, 320.833252)"><g><path d="M 3.59375 -3.578125 L -47.59375 -55 L 6.78125 -109.109375 L 16.515625 -99.34375 L -26.25 -56.796875 L -11.203125 -41.65625 L 27.140625 -79.828125 L 36.796875 -70.140625 L -1.546875 -31.96875 L 15.203125 -15.140625 Z M 3.59375 -3.578125 "/></g></g></g><g fill="#222222" fill-opacity="1"><g transform="translate(124.327215, 262.688715)"><g><path d="M 4 -3.125 L -40.625 -60.34375 L -27.703125 -70.421875 L 8.4375 -24.0625 L 54.375 -59.890625 L 62.859375 -49.03125 Z M 4 -3.125 "/></g></g></g><g fill="#222222" fill-opacity="1"><g transform="translate(186.918519, 212.907131)"><g><path d="M 43.296875 -24.3125 C 34.128906 -18.90625 25.910156 -15.765625 18.640625 -14.890625 C 11.378906 -14.023438 4.960938 -15.191406 -0.609375 -18.390625 C -6.191406 -21.597656 -10.984375 -26.601562 -14.984375 -33.40625 C -18.984375 -40.1875 -21.023438 -46.78125 -21.109375 -53.1875 C -21.191406 -59.59375 -19.082031 -65.742188 -14.78125 -71.640625 C -10.476562 -77.546875 -3.742188 -83.203125 5.421875 -88.609375 C 14.585938 -94.003906 22.804688 -97.132812 30.078125 -98 C 37.347656 -98.875 43.753906 -97.738281 49.296875 -94.59375 C 54.835938 -91.457031 59.609375 -86.5 63.609375 -79.71875 C 67.609375 -72.914062 69.648438 -66.304688 69.734375 -59.890625 C 69.816406 -53.484375 67.722656 -47.300781 63.453125 -41.34375 C 59.179688 -35.382812 52.460938 -29.707031 43.296875 -24.3125 Z M 36.3125 -36.1875 C 45.125 -41.375 50.582031 -46.734375 52.6875 -52.265625 C 54.789062 -57.804688 53.722656 -64.179688 49.484375 -71.390625 C 45.273438 -78.535156 40.265625 -82.515625 34.453125 -83.328125 C 28.640625 -84.148438 21.296875 -81.953125 12.421875 -76.734375 C 3.609375 -71.546875 -1.867188 -66.210938 -4.015625 -60.734375 C -6.160156 -55.253906 -5.113281 -48.914062 -0.875 -41.71875 C 3.363281 -34.507812 8.414062 -30.488281 14.28125 -29.65625 C 20.15625 -28.820312 27.5 -31 36.3125 -36.1875 Z M 36.3125 -36.1875 "/></g></g></g><g fill="#222222" fill-opacity="1"><g transform="translate(268.965624, 164.470262)"><g><path d="M 4.6875 -1.953125 L -23.234375 -68.921875 L 29.390625 -90.859375 C 34.484375 -92.984375 39.351562 -93.875 44 -93.53125 C 48.644531 -93.1875 52.804688 -91.644531 56.484375 -88.90625 C 60.171875 -86.175781 63.050781 -82.320312 65.125 -77.34375 C 67.457031 -71.738281 68.054688 -66.429688 66.921875 -61.421875 C 65.785156 -56.410156 63.207031 -52.097656 59.1875 -48.484375 L 80.171875 -33.421875 L 62.375 -26 L 43.390625 -39.75 L 12.09375 -26.703125 L 19.796875 -8.25 Z M 6.796875 -39.4375 L 39.53125 -53.078125 C 41 -53.691406 42.582031 -54.425781 44.28125 -55.28125 C 45.988281 -56.144531 47.488281 -57.257812 48.78125 -58.625 C 50.082031 -59.988281 50.910156 -61.679688 51.265625 -63.703125 C 51.628906 -65.734375 51.210938 -68.179688 50.015625 -71.046875 C 48.816406 -73.921875 47.378906 -75.925781 45.703125 -77.0625 C 44.023438 -78.195312 42.242188 -78.78125 40.359375 -78.8125 C 38.484375 -78.851562 36.640625 -78.566406 34.828125 -77.953125 C 33.023438 -77.347656 31.390625 -76.738281 29.921875 -76.125 L -2.8125 -62.484375 Z M 6.796875 -39.4375 "/></g></g></g><g fill="#222222" fill-opacity="1"><g transform="translate(352.174456, 129.800366)"><g><path d="M 4.890625 -1.34375 L -14.265625 -71.328125 L 59.71875 -91.578125 L 63.203125 -78.875 L 5.015625 -62.9375 L 9.46875 -46.65625 L 67.65625 -62.59375 L 70.9375 -50.59375 L 12.75 -34.65625 L 17.203125 -18.359375 L 75.390625 -34.296875 L 78.875 -21.59375 Z M 4.890625 -1.34375 "/></g></g></g><g fill="#222222" fill-opacity="1"><g transform="translate(430.847542, 107.18127)"><g><path d="M 4.015625 -0.515625 L 33.828125 -77.5625 L 54.796875 -80.28125 L 103.296875 -13.421875 L 85.3125 -11.078125 L 74.515625 -25.875 L 28.671875 -19.921875 L 22 -2.859375 Z M 33.296875 -33.296875 L 66.609375 -37.625 L 46.03125 -65.65625 Z M 33.296875 -33.296875 "/></g></g></g><g fill="#222222" fill-opacity="1"><g transform="translate(534.975281, 95.131)"><g/></g></g><g fill="#222222" fill-opacity="1"><g transform="translate(580.750348, 92.498743)"><g><path d="M 4.03125 0.375 L 50.1875 -68.125 L 71.25 -66.140625 L 103.703125 9.8125 L 85.640625 8.109375 L 78.390625 -8.703125 L 32.375 -13.0625 L 22.09375 2.09375 Z M 39.84375 -25.078125 L 73.296875 -21.90625 L 59.453125 -53.828125 Z M 39.84375 -25.078125 "/></g></g></g><g fill="#222222" fill-opacity="1"><g transform="translate(684.222684, 102.386645)"><g><path d="M 39.265625 9.625 L 53.265625 -47.453125 L 17.9375 -56.109375 L 21.21875 -69.5 L 107.78125 -48.28125 L 104.5 -34.890625 L 69.15625 -43.546875 L 55.15625 13.53125 Z M 39.265625 9.625 "/></g></g></g><g fill="#222222" fill-opacity="1"><g transform="translate(774.89416, 124.747701)"><g><path d="M 4.734375 1.84375 L 31.015625 -65.796875 L 102.515625 -38.015625 L 97.75 -25.734375 L 41.515625 -47.59375 L 35.390625 -31.84375 L 91.625 -9.984375 L 87.125 1.609375 L 30.890625 -20.25 L 24.765625 -4.515625 L 81 17.34375 L 76.234375 29.625 Z M 4.734375 1.84375 "/></g></g></g><g fill="#222222" fill-opacity="1"><g transform="translate(851.631706, 154.404308)"><g><path d="M 4.484375 2.390625 L 38.71875 -61.59375 L 53.15625 -53.859375 L 25.421875 -2.03125 L 76.796875 25.453125 L 70.296875 37.609375 Z M 4.484375 2.390625 "/></g></g></g><g fill="#222222" fill-opacity="1"><g transform="translate(922.8812, 193.686451)"><g><path d="M 4.28125 2.734375 L 43.421875 -58.375 L 57.203125 -49.546875 L 18.0625 11.5625 Z M 4.28125 2.734375 "/></g></g></g><g fill="#222222" fill-opacity="1"><g transform="translate(943.940711, 205.6558)"><g><path d="M 4.046875 3.078125 L 47.9375 -54.703125 L 109.015625 -8.3125 L 101.046875 2.171875 L 53 -34.328125 L 42.78125 -20.875 L 90.828125 15.625 L 83.3125 25.53125 L 35.265625 -10.96875 L 25.046875 2.484375 L 73.09375 38.984375 L 65.125 49.46875 Z M 4.046875 3.078125 "/></g></g></g><g fill="#222222" fill-opacity="1"><g transform="translate(1009.618031, 254.906917)"><g><path d="M 3.625 3.5625 L 54.515625 -48.15625 L 95.15625 -8.171875 C 99.082031 -4.296875 101.785156 -0.148438 103.265625 4.265625 C 104.742188 8.679688 104.941406 13.113281 103.859375 17.5625 C 102.773438 22.007812 100.34375 26.160156 96.5625 30.015625 C 92.300781 34.335938 87.640625 36.945312 82.578125 37.84375 C 77.523438 38.75 72.546875 38.046875 67.640625 35.734375 L 61.90625 60.921875 L 48.171875 47.390625 L 53.484375 24.578125 L 29.328125 0.796875 L 15.296875 15.046875 Z M 39 -9.046875 L 64.265625 15.8125 C 65.398438 16.9375 66.691406 18.117188 68.140625 19.359375 C 69.585938 20.597656 71.191406 21.550781 72.953125 22.21875 C 74.722656 22.882812 76.609375 22.988281 78.609375 22.53125 C 80.617188 22.070312 82.710938 20.738281 84.890625 18.53125 C 87.066406 16.300781 88.351562 14.195312 88.75 12.21875 C 89.144531 10.238281 88.992188 8.375 88.296875 6.625 C 87.609375 4.875 86.632812 3.28125 85.375 1.84375 C 84.113281 0.414062 82.914062 -0.859375 81.78125 -1.984375 L 56.515625 -26.84375 Z M 39 -9.046875 "/></g></g></g></g></g></svg>